<?xml version="1.0" standalone="no"?>
<!DOCTYPE svg PUBLIC "-//W3C//DTD SVG 20010904//EN"
 "http://www.w3.org/TR/2001/REC-SVG-20010904/DTD/svg10.dtd">
<svg version="1.0" xmlns="http://www.w3.org/2000/svg"
 width="164.000000pt" height="164.000000pt" viewBox="0 0 164.000000 164.000000"
 preserveAspectRatio="xMidYMid meet">
<metadata>
Created by potrace 1.11, written by Peter Selinger 2001-2013
</metadata>
<g transform="translate(0.000000,164.000000) scale(0.100000,-0.100000)"
fill="#000000" stroke="none">
<path d="M1210 1301 c0 -8 -41 -21 -89 -27 -13 -2 -30 -5 -38 -8 -7 -3 -13 0
-13 7 0 7 -5 4 -11 -6 -9 -15 -13 -16 -27 -5 -12 10 -14 10 -8 1 5 -9 0 -13
-13 -13 -12 0 -21 -5 -21 -11 0 -5 -4 -8 -9 -4 -5 3 -12 1 -15 -4 -3 -5 -15
-7 -26 -4 -11 3 -28 2 -37 -2 -10 -5 -26 -7 -37 -6 -10 2 -16 -1 -13 -6 3 -5
-19 -8 -49 -6 -30 1 -52 -1 -49 -6 3 -5 -6 -4 -19 2 -16 8 -21 14 -13 19 9 6
9 8 0 8 -6 0 -15 -5 -18 -10 -4 -6 -10 -8 -15 -5 -5 3 -16 -2 -24 -11 -9 -9
-24 -17 -34 -19 -9 -1 -16 -8 -14 -14 1 -6 -6 -14 -15 -18 -10 -3 -28 -15 -40
-26 -12 -11 -27 -16 -34 -12 -8 5 -10 4 -5 -3 4 -7 -2 -22 -13 -34 -12 -12
-21 -18 -21 -14 0 5 -8 2 -17 -5 -14 -12 -16 -12 -9 1 4 9 2 8 -7 -2 -8 -10
-17 -15 -20 -11 -4 3 -7 1 -7 -5 0 -5 6 -13 13 -16 6 -3 1 -3 -12 0 -15 4 -21
2 -17 -4 4 -6 -2 -8 -16 -4 -14 3 -19 2 -14 -6 4 -7 2 -12 -4 -12 -6 0 -8 -5
-4 -12 5 -8 2 -9 -9 -5 -9 3 -19 1 -23 -5 -5 -7 -2 -8 6 -3 10 6 12 4 7 -9 -4
-10 -7 -20 -7 -22 0 -3 -5 -2 -11 1 -6 4 -9 0 -7 -11 2 -11 -2 -18 -9 -17 -8
2 -10 -4 -6 -14 4 -11 3 -14 -5 -9 -7 4 -12 2 -12 -4 0 -6 -5 -8 -10 -5 -6 3
-10 1 -10 -4 0 -6 5 -11 10 -11 6 0 3 -11 -7 -24 -10 -13 -21 -22 -24 -20 -4
2 -10 -3 -13 -12 -4 -10 -2 -13 7 -8 6 4 4 -2 -7 -14 -10 -12 -24 -19 -30 -15
-6 4 -4 -2 4 -13 8 -10 10 -16 6 -12 -5 5 -14 -2 -21 -15 -6 -12 -16 -21 -22
-20 -6 1 -9 -6 -6 -17 4 -15 1 -19 -10 -14 -8 3 -18 1 -22 -5 -3 -6 0 -11 7
-11 10 0 10 -2 -1 -9 -8 -5 -11 -16 -8 -26 4 -9 3 -14 -3 -10 -6 3 -10 -1 -10
-9 0 -9 -5 -15 -12 -13 -7 1 -12 -4 -13 -12 0 -8 -9 -17 -20 -22 -11 -4 -14
-8 -8 -8 7 -1 12 -6 10 -13 -4 -21 -30 -47 -40 -41 -6 3 -7 1 -3 -6 10 -16 -3
-53 -16 -45 -7 5 -8 2 -3 -6 4 -7 2 -16 -5 -20 -8 -5 -15 -18 -17 -30 -2 -12
1 -19 7 -15 5 3 10 2 10 -4 0 -5 12 1 27 15 15 14 33 22 41 19 7 -3 18 -5 23
-5 6 0 8 -4 4 -9 -3 -6 3 -9 14 -8 11 0 17 5 14 11 -4 5 1 7 11 3 14 -6 17 -3
12 8 -3 9 -2 14 3 10 5 -3 15 1 23 8 13 14 66 32 81 28 5 -1 6 3 3 8 -6 10 22
25 41 22 6 -1 14 7 18 18 4 13 13 18 26 16 11 -2 17 0 14 4 -2 5 16 16 41 26
39 15 48 15 55 4 5 -8 9 -9 9 -3 0 6 7 11 15 11 8 0 15 -5 15 -10 0 -5 6 -4
14 2 10 9 16 9 21 1 5 -8 10 -8 20 0 10 8 14 7 18 -2 4 -8 8 -9 14 -3 14 17
31 15 36 -5 3 -11 1 -18 -4 -14 -5 3 -9 -2 -9 -10 0 -8 9 -20 20 -26 16 -9 18
-15 10 -30 -7 -14 -7 -21 2 -27 7 -4 14 -16 14 -25 1 -10 -2 -16 -6 -13 -16
10 -20 -13 -6 -28 8 -8 12 -18 8 -22 -4 -4 0 -5 8 -3 8 3 23 -1 32 -9 13 -12
21 -12 38 -3 15 8 20 8 16 1 -13 -21 12 -11 28 12 9 12 14 15 11 7 -6 -13 -5
-13 7 0 7 8 26 15 41 15 16 0 28 3 28 8 -1 4 -1 16 -1 27 0 16 -6 19 -30 16
-16 -2 -39 3 -50 11 -11 8 -25 11 -30 8 -9 -5 -14 7 -11 27 0 4 -8 9 -18 13
-21 6 -37 35 -20 35 6 0 7 5 4 10 -8 13 19 40 40 40 10 0 14 5 9 13 -5 9 -4 9
6 0 13 -12 43 -7 35 6 -2 4 6 7 18 6 12 -1 25 3 29 9 5 7 8 6 8 -3 0 -11 3
-11 15 -1 12 10 15 10 15 -4 0 -9 5 -16 11 -16 5 0 7 6 3 13 -4 6 2 3 14 -7
24 -21 29 -31 10 -20 -8 4 -10 3 -5 -2 9 -9 13 -10 41 -13 9 -1 12 -9 9 -23
-4 -19 -3 -20 7 -8 10 13 11 11 7 -7 -3 -14 0 -21 7 -20 6 1 10 -3 9 -8 -1 -6
10 -12 23 -13 23 -2 25 1 20 29 -3 24 -2 29 7 20 18 -18 37 -13 38 12 0 12 3
16 6 10 2 -7 14 -13 25 -13 14 0 19 6 16 22 -2 13 -9 22 -16 20 -6 -1 -12 3
-12 9 0 5 -4 8 -9 5 -4 -3 -20 5 -35 18 -15 12 -37 22 -49 21 -12 -1 -28 5
-35 14 -8 9 -11 10 -7 4 4 -8 1 -11 -8 -7 -19 7 -17 36 3 41 15 4 50 51 47 63
-1 3 13 20 31 38 33 32 41 48 20 37 -7 -3 -3 2 10 11 12 9 22 24 23 33 0 11 2
12 6 3 4 -10 8 -10 21 0 13 11 14 11 8 0 -7 -11 -4 -11 13 0 12 7 19 18 17 25
-3 7 1 10 8 7 8 -3 17 0 22 7 4 8 3 10 -4 5 -8 -5 -10 -2 -6 8 3 9 10 14 14
11 4 -3 11 2 14 11 3 8 11 12 16 9 6 -4 10 -3 9 2 -4 20 2 27 12 13 9 -12 10
-10 6 8 -3 13 -3 21 0 18 3 -3 12 1 20 9 8 8 23 15 34 15 11 0 18 4 15 9 -4 5
2 8 11 7 10 -2 23 3 31 10 7 7 20 10 29 7 13 -5 15 -2 10 12 -6 15 -5 16 8 5
10 -8 15 -9 15 -2 0 6 10 17 23 23 21 12 21 11 7 -7 -14 -18 -13 -18 8 1 20
16 25 17 32 5 8 -13 10 -13 10 0 0 9 3 11 8 5 8 -11 32 -13 48 -3 6 4 21 6 33
3 12 -2 21 1 21 8 0 7 4 6 11 -3 8 -11 9 -9 3 10 -3 14 -7 25 -8 25 -28 9 -76
44 -76 55 0 9 -3 11 -8 5 -9 -13 -42 -16 -42 -4 0 5 -3 8 -7 8 -20 -3 -34 2
-28 11 3 6 1 10 -4 10 -6 0 -11 7 -11 15 0 8 -3 14 -7 14 -21 -3 -33 2 -27 13
5 7 0 9 -14 6 -13 -4 -26 0 -34 10 -11 13 -11 15 2 7 12 -6 13 -6 2 6 -11 12
-14 12 -22 -1 -8 -13 -10 -13 -15 0 -4 11 -20 15 -55 14 -28 0 -50 3 -50 8 0
4 -4 8 -10 8 -5 0 -10 -4 -10 -9z m-1105 -880 c-6 -5 -25 10 -25 20 0 5 6 4
14 -3 8 -7 12 -15 11 -17z"/>
</g>
</svg>
